<svg width="36" height="34" viewBox="0 0 36 34" fill="none" xmlns="http://www.w3.org/2000/svg">
<g id="Group 348">
<path id="Vector" fill-rule="evenodd" clip-rule="evenodd" d="M16.2077 2.75C8.86691 2.75 2.91602 8.70089 2.91602 16.0417C2.91602 19.2742 4.06825 22.2341 5.98588 24.5382C6.28565 24.8985 6.38133 25.3865 6.23974 25.8333L4.88593 30.1046L10.3924 28.3699C10.6937 28.275 11.0186 28.2867 11.3122 28.4031C12.8254 29.003 14.4763 29.3333 16.2077 29.3333H19.8743C27.2152 29.3333 33.166 23.3825 33.166 16.0417C33.166 8.70089 27.2152 2.75 19.8743 2.75H16.2077ZM0.166016 16.0417C0.166016 7.1821 7.34812 0 16.2077 0H19.8743C28.7339 0 35.916 7.1821 35.916 16.0417C35.916 24.9013 28.7339 32.0833 19.8743 32.0833H16.2077C14.2991 32.0833 12.4658 31.7495 10.7647 31.1359L4.87119 32.9925C3.10146 33.55 1.43743 31.8831 1.99803 30.1143L2.8942 30.3985L1.99803 30.1143L3.39754 25.6989C1.36953 23.0125 0.166016 19.6662 0.166016 16.0417Z" fill="#141414"/>
<path id="Vector_2" d="M11.6243 17.875C12.6369 17.875 13.4577 17.0542 13.4577 16.0417C13.4577 15.0292 12.6369 14.2084 11.6243 14.2084C10.6118 14.2084 9.79102 15.0292 9.79102 16.0417C9.79102 17.0542 10.6118 17.875 11.6243 17.875Z" fill="#141414"/>
<path id="Vector_3" d="M18.0413 17.875C19.0539 17.875 19.8747 17.0542 19.8747 16.0417C19.8747 15.0292 19.0539 14.2084 18.0413 14.2084C17.0288 14.2084 16.208 15.0292 16.208 16.0417C16.208 17.0542 17.0288 17.875 18.0413 17.875Z" fill="#141414"/>
<path id="Vector_4" d="M24.4574 17.875C25.4699 17.875 26.2907 17.0542 26.2907 16.0417C26.2907 15.0292 25.4699 14.2084 24.4574 14.2084C23.4448 14.2084 22.624 15.0292 22.624 16.0417C22.624 17.0542 23.4448 17.875 24.4574 17.875Z" fill="#141414"/>
</g>
</svg>
