<svg width="226" height="97" viewBox="0 0 226 97" fill="none" xmlns="http://www.w3.org/2000/svg">
<path d="M107.5 18.3333H107.518M118.5 18.3333H118.518M105.667 29.3333L109.333 25.6667L113 29.3333L116.667 25.6667L120.333 29.3333M96.5 22C96.5 24.1668 96.9268 26.3124 97.756 28.3143C98.5852 30.3161 99.8006 32.1351 101.333 33.6673C102.865 35.1994 104.684 36.4148 106.686 37.244C108.688 38.0732 110.833 38.5 113 38.5C115.167 38.5 117.312 38.0732 119.314 37.244C121.316 36.4148 123.135 35.1994 124.667 33.6673C126.199 32.1351 127.415 30.3161 128.244 28.3143C129.073 26.3124 129.5 24.1668 129.5 22C129.5 19.8332 129.073 17.6876 128.244 15.6857C127.415 13.6839 126.199 11.8649 124.667 10.3327C123.135 8.80057 121.316 7.58519 119.314 6.75599C117.312 5.92679 115.167 5.5 113 5.5C110.833 5.5 108.688 5.92679 106.686 6.75599C104.684 7.58519 102.865 8.80057 101.333 10.3327C99.8006 11.8649 98.5852 13.6839 97.756 15.6857C96.9268 17.6876 96.5 19.8332 96.5 22Z" stroke="black" stroke-width="1.5" stroke-linecap="round" stroke-linejoin="round"/>
<path d="M50.3863 67V57.2H51.8843L58.0303 64.746H57.2883V57.2H59.0943V67H57.5963L51.4503 59.454H52.1923V67H50.3863ZM64.9123 67.098C64.147 67.098 63.4656 66.9347 62.8683 66.608C62.271 66.272 61.7996 65.8147 61.4543 65.236C61.109 64.6573 60.9363 63.9993 60.9363 63.262C60.9363 62.5153 61.109 61.8573 61.4543 61.288C61.7996 60.7093 62.271 60.2567 62.8683 59.93C63.4656 59.6033 64.147 59.44 64.9123 59.44C65.687 59.44 66.373 59.6033 66.9703 59.93C67.577 60.2567 68.0483 60.7047 68.3843 61.274C68.7296 61.8433 68.9023 62.506 68.9023 63.262C68.9023 63.9993 68.7296 64.6573 68.3843 65.236C68.0483 65.8147 67.577 66.272 66.9703 66.608C66.373 66.9347 65.687 67.098 64.9123 67.098ZM64.9123 65.6C65.3416 65.6 65.7243 65.5067 66.0603 65.32C66.3963 65.1333 66.6576 64.8627 66.8443 64.508C67.0403 64.1533 67.1383 63.738 67.1383 63.262C67.1383 62.7767 67.0403 62.3613 66.8443 62.016C66.6576 61.6613 66.3963 61.3907 66.0603 61.204C65.7243 61.0173 65.3463 60.924 64.9263 60.924C64.497 60.924 64.1143 61.0173 63.7783 61.204C63.4516 61.3907 63.1903 61.6613 62.9943 62.016C62.7983 62.3613 62.7003 62.7767 62.7003 63.262C62.7003 63.738 62.7983 64.1533 62.9943 64.508C63.1903 64.8627 63.4516 65.1333 63.7783 65.32C64.1143 65.5067 64.4923 65.6 64.9123 65.6ZM76.7549 67.098C76.1295 67.098 75.5275 67.0187 74.9489 66.86C74.3795 66.692 73.9269 66.4913 73.5909 66.258L74.2629 64.928C74.5989 65.1427 75.0002 65.32 75.4669 65.46C75.9335 65.6 76.4002 65.67 76.8669 65.67C77.4175 65.67 77.8142 65.5953 78.0569 65.446C78.3089 65.2967 78.4349 65.096 78.4349 64.844C78.4349 64.6387 78.3509 64.4847 78.1829 64.382C78.0149 64.27 77.7955 64.186 77.5249 64.13C77.2542 64.074 76.9509 64.0227 76.6149 63.976C76.2882 63.9293 75.9569 63.8687 75.6209 63.794C75.2942 63.71 74.9955 63.5933 74.7249 63.444C74.4542 63.2853 74.2349 63.0753 74.0669 62.814C73.8989 62.5527 73.8149 62.2073 73.8149 61.778C73.8149 61.302 73.9502 60.8913 74.2209 60.546C74.4915 60.1913 74.8695 59.9207 75.3549 59.734C75.8495 59.538 76.4329 59.44 77.1049 59.44C77.6089 59.44 78.1175 59.496 78.6309 59.608C79.1442 59.72 79.5689 59.8787 79.9049 60.084L79.2329 61.414C78.8782 61.1993 78.5189 61.0547 78.1549 60.98C77.8002 60.896 77.4455 60.854 77.0909 60.854C76.5589 60.854 76.1622 60.9333 75.9009 61.092C75.6489 61.2507 75.5229 61.4513 75.5229 61.694C75.5229 61.918 75.6069 62.086 75.7749 62.198C75.9429 62.31 76.1622 62.3987 76.4329 62.464C76.7035 62.5293 77.0022 62.5853 77.3289 62.632C77.6649 62.6693 77.9962 62.73 78.3229 62.814C78.6495 62.898 78.9482 63.0147 79.2189 63.164C79.4989 63.304 79.7229 63.5047 79.8909 63.766C80.0589 64.0273 80.1429 64.368 80.1429 64.788C80.1429 65.2547 80.0029 65.6607 79.7229 66.006C79.4522 66.3513 79.0649 66.622 78.5609 66.818C78.0569 67.0047 77.4549 67.098 76.7549 67.098ZM85.164 67.098C84.3333 67.098 83.6053 66.9347 82.98 66.608C82.364 66.272 81.8833 65.8147 81.538 65.236C81.202 64.6573 81.034 63.9993 81.034 63.262C81.034 62.5153 81.1973 61.8573 81.524 61.288C81.86 60.7093 82.3173 60.2567 82.896 59.93C83.484 59.6033 84.1513 59.44 84.898 59.44C85.626 59.44 86.2746 59.5987 86.844 59.916C87.4133 60.2333 87.8613 60.6813 88.188 61.26C88.5146 61.8387 88.678 62.52 88.678 63.304C88.678 63.3787 88.6733 63.4627 88.664 63.556C88.664 63.6493 88.6593 63.738 88.65 63.822H82.42V62.66H87.726L87.04 63.024C87.0493 62.5947 86.9606 62.2167 86.774 61.89C86.5873 61.5633 86.3306 61.3067 86.004 61.12C85.6866 60.9333 85.318 60.84 84.898 60.84C84.4686 60.84 84.0906 60.9333 83.764 61.12C83.4466 61.3067 83.1946 61.568 83.008 61.904C82.8306 62.2307 82.742 62.618 82.742 63.066V63.346C82.742 63.794 82.8446 64.1907 83.05 64.536C83.2553 64.8813 83.5446 65.1473 83.918 65.334C84.2913 65.5207 84.7206 65.614 85.206 65.614C85.626 65.614 86.004 65.5487 86.34 65.418C86.676 65.2873 86.9746 65.082 87.236 64.802L88.174 65.88C87.838 66.272 87.4133 66.5753 86.9 66.79C86.396 66.9953 85.8173 67.098 85.164 67.098ZM94.7599 67V65.488L94.6619 65.166V62.52C94.6619 62.0067 94.5079 61.61 94.1999 61.33C93.8919 61.0407 93.4252 60.896 92.7999 60.896C92.3799 60.896 91.9645 60.9613 91.5539 61.092C91.1525 61.2227 90.8119 61.4047 90.5319 61.638L89.8459 60.364C90.2472 60.056 90.7232 59.8273 91.2739 59.678C91.8339 59.5193 92.4125 59.44 93.0099 59.44C94.0925 59.44 94.9279 59.7013 95.5159 60.224C96.1132 60.7373 96.4119 61.5353 96.4119 62.618V67H94.7599ZM92.4079 67.098C91.8479 67.098 91.3579 67.0047 90.9379 66.818C90.5179 66.622 90.1912 66.356 89.9579 66.02C89.7339 65.6747 89.6219 65.2873 89.6219 64.858C89.6219 64.438 89.7199 64.06 89.9159 63.724C90.1212 63.388 90.4525 63.122 90.9099 62.926C91.3672 62.73 91.9739 62.632 92.7299 62.632H94.8999V63.794H92.8559C92.2585 63.794 91.8572 63.892 91.6519 64.088C91.4465 64.2747 91.3439 64.508 91.3439 64.788C91.3439 65.1053 91.4699 65.3573 91.7219 65.544C91.9739 65.7307 92.3239 65.824 92.7719 65.824C93.2012 65.824 93.5839 65.726 93.9199 65.53C94.2652 65.334 94.5125 65.0447 94.6619 64.662L94.9559 65.712C94.7879 66.1507 94.4845 66.4913 94.0459 66.734C93.6165 66.9767 93.0705 67.098 92.4079 67.098ZM98.6578 67V59.524H100.324V61.582L100.128 60.98C100.352 60.476 100.702 60.0933 101.178 59.832C101.663 59.5707 102.265 59.44 102.984 59.44V61.106C102.909 61.0873 102.839 61.078 102.774 61.078C102.708 61.0687 102.643 61.064 102.578 61.064C101.915 61.064 101.388 61.26 100.996 61.652C100.604 62.0347 100.408 62.6087 100.408 63.374V67H98.6578ZM107.83 67.098C107.046 67.098 106.346 66.9347 105.73 66.608C105.123 66.272 104.647 65.8147 104.302 65.236C103.957 64.6573 103.784 63.9993 103.784 63.262C103.784 62.5153 103.957 61.8573 104.302 61.288C104.647 60.7093 105.123 60.2567 105.73 59.93C106.346 59.6033 107.046 59.44 107.83 59.44C108.558 59.44 109.197 59.5893 109.748 59.888C110.308 60.1773 110.733 60.6067 111.022 61.176L109.678 61.96C109.454 61.6053 109.179 61.344 108.852 61.176C108.535 61.008 108.189 60.924 107.816 60.924C107.387 60.924 106.999 61.0173 106.654 61.204C106.309 61.3907 106.038 61.6613 105.842 62.016C105.646 62.3613 105.548 62.7767 105.548 63.262C105.548 63.7473 105.646 64.1673 105.842 64.522C106.038 64.8673 106.309 65.1333 106.654 65.32C106.999 65.5067 107.387 65.6 107.816 65.6C108.189 65.6 108.535 65.516 108.852 65.348C109.179 65.18 109.454 64.9187 109.678 64.564L111.022 65.348C110.733 65.908 110.308 66.342 109.748 66.65C109.197 66.9487 108.558 67.098 107.83 67.098ZM116.708 59.44C117.306 59.44 117.838 59.5567 118.304 59.79C118.78 60.0233 119.154 60.3827 119.424 60.868C119.695 61.344 119.83 61.96 119.83 62.716V67H118.08V62.94C118.08 62.2773 117.922 61.7827 117.604 61.456C117.296 61.1293 116.862 60.966 116.302 60.966C115.892 60.966 115.528 61.05 115.21 61.218C114.893 61.386 114.646 61.638 114.468 61.974C114.3 62.3007 114.216 62.716 114.216 63.22V67H112.466V56.612H114.216V61.54L113.838 60.924C114.1 60.448 114.478 60.084 114.972 59.832C115.476 59.5707 116.055 59.44 116.708 59.44ZM125.919 67V59.524H127.585V61.582L127.389 60.98C127.613 60.476 127.963 60.0933 128.439 59.832C128.925 59.5707 129.527 59.44 130.245 59.44V61.106C130.171 61.0873 130.101 61.078 130.035 61.078C129.97 61.0687 129.905 61.064 129.839 61.064C129.177 61.064 128.649 61.26 128.257 61.652C127.865 62.0347 127.669 62.6087 127.669 63.374V67H125.919ZM135.176 67.098C134.345 67.098 133.617 66.9347 132.992 66.608C132.376 66.272 131.895 65.8147 131.55 65.236C131.214 64.6573 131.046 63.9993 131.046 63.262C131.046 62.5153 131.209 61.8573 131.536 61.288C131.872 60.7093 132.329 60.2567 132.908 59.93C133.496 59.6033 134.163 59.44 134.91 59.44C135.638 59.44 136.286 59.5987 136.856 59.916C137.425 60.2333 137.873 60.6813 138.2 61.26C138.526 61.8387 138.69 62.52 138.69 63.304C138.69 63.3787 138.685 63.4627 138.676 63.556C138.676 63.6493 138.671 63.738 138.662 63.822H132.432V62.66H137.738L137.052 63.024C137.061 62.5947 136.972 62.2167 136.786 61.89C136.599 61.5633 136.342 61.3067 136.016 61.12C135.698 60.9333 135.33 60.84 134.91 60.84C134.48 60.84 134.102 60.9333 133.776 61.12C133.458 61.3067 133.206 61.568 133.02 61.904C132.842 62.2307 132.754 62.618 132.754 63.066V63.346C132.754 63.794 132.856 64.1907 133.062 64.536C133.267 64.8813 133.556 65.1473 133.93 65.334C134.303 65.5207 134.732 65.614 135.218 65.614C135.638 65.614 136.016 65.5487 136.352 65.418C136.688 65.2873 136.986 65.082 137.248 64.802L138.186 65.88C137.85 66.272 137.425 66.5753 136.912 66.79C136.408 66.9953 135.829 67.098 135.176 67.098ZM142.681 67.098C142.055 67.098 141.453 67.0187 140.875 66.86C140.305 66.692 139.853 66.4913 139.517 66.258L140.189 64.928C140.525 65.1427 140.926 65.32 141.393 65.46C141.859 65.6 142.326 65.67 142.793 65.67C143.343 65.67 143.74 65.5953 143.983 65.446C144.235 65.2967 144.361 65.096 144.361 64.844C144.361 64.6387 144.277 64.4847 144.109 64.382C143.941 64.27 143.721 64.186 143.451 64.13C143.18 64.074 142.877 64.0227 142.541 63.976C142.214 63.9293 141.883 63.8687 141.547 63.794C141.22 63.71 140.921 63.5933 140.651 63.444C140.38 63.2853 140.161 63.0753 139.993 62.814C139.825 62.5527 139.741 62.2073 139.741 61.778C139.741 61.302 139.876 60.8913 140.147 60.546C140.417 60.1913 140.795 59.9207 141.281 59.734C141.775 59.538 142.359 59.44 143.031 59.44C143.535 59.44 144.043 59.496 144.557 59.608C145.07 59.72 145.495 59.8787 145.831 60.084L145.159 61.414C144.804 61.1993 144.445 61.0547 144.081 60.98C143.726 60.896 143.371 60.854 143.017 60.854C142.485 60.854 142.088 60.9333 141.827 61.092C141.575 61.2507 141.449 61.4513 141.449 61.694C141.449 61.918 141.533 62.086 141.701 62.198C141.869 62.31 142.088 62.3987 142.359 62.464C142.629 62.5293 142.928 62.5853 143.255 62.632C143.591 62.6693 143.922 62.73 144.249 62.814C144.575 62.898 144.874 63.0147 145.145 63.164C145.425 63.304 145.649 63.5047 145.817 63.766C145.985 64.0273 146.069 64.368 146.069 64.788C146.069 65.2547 145.929 65.6607 145.649 66.006C145.378 66.3513 144.991 66.622 144.487 66.818C143.983 67.0047 143.381 67.098 142.681 67.098ZM150.74 67.098C150.105 67.098 149.545 66.9813 149.06 66.748C148.574 66.5053 148.196 66.1413 147.926 65.656C147.655 65.1613 147.52 64.5407 147.52 63.794V59.524H149.27V63.556C149.27 64.228 149.419 64.732 149.718 65.068C150.026 65.3947 150.46 65.558 151.02 65.558C151.43 65.558 151.785 65.474 152.084 65.306C152.392 65.138 152.63 64.886 152.798 64.55C152.975 64.214 153.064 63.7987 153.064 63.304V59.524H154.814V67H153.148V64.984L153.442 65.6C153.19 66.0853 152.821 66.4587 152.336 66.72C151.85 66.972 151.318 67.098 150.74 67.098ZM157.105 67V56.612H158.855V67H157.105ZM164.335 67.098C163.514 67.098 162.879 66.888 162.431 66.468C161.983 66.0387 161.759 65.4087 161.759 64.578V57.872H163.509V64.536C163.509 64.8907 163.598 65.166 163.775 65.362C163.962 65.558 164.218 65.656 164.545 65.656C164.937 65.656 165.264 65.5533 165.525 65.348L166.015 66.594C165.81 66.762 165.558 66.888 165.259 66.972C164.96 67.056 164.652 67.098 164.335 67.098ZM160.527 60.98V59.58H165.511V60.98H160.527ZM169.765 67.098C169.139 67.098 168.537 67.0187 167.959 66.86C167.389 66.692 166.937 66.4913 166.601 66.258L167.273 64.928C167.609 65.1427 168.01 65.32 168.477 65.46C168.943 65.6 169.41 65.67 169.877 65.67C170.427 65.67 170.824 65.5953 171.067 65.446C171.319 65.2967 171.445 65.096 171.445 64.844C171.445 64.6387 171.361 64.4847 171.193 64.382C171.025 64.27 170.805 64.186 170.535 64.13C170.264 64.074 169.961 64.0227 169.625 63.976C169.298 63.9293 168.967 63.8687 168.631 63.794C168.304 63.71 168.005 63.5933 167.735 63.444C167.464 63.2853 167.245 63.0753 167.077 62.814C166.909 62.5527 166.825 62.2073 166.825 61.778C166.825 61.302 166.96 60.8913 167.231 60.546C167.501 60.1913 167.879 59.9207 168.365 59.734C168.859 59.538 169.443 59.44 170.115 59.44C170.619 59.44 171.127 59.496 171.641 59.608C172.154 59.72 172.579 59.8787 172.915 60.084L172.243 61.414C171.888 61.1993 171.529 61.0547 171.165 60.98C170.81 60.896 170.455 60.854 170.101 60.854C169.569 60.854 169.172 60.9333 168.911 61.092C168.659 61.2507 168.533 61.4513 168.533 61.694C168.533 61.918 168.617 62.086 168.785 62.198C168.953 62.31 169.172 62.3987 169.443 62.464C169.713 62.5293 170.012 62.5853 170.339 62.632C170.675 62.6693 171.006 62.73 171.333 62.814C171.659 62.898 171.958 63.0147 172.229 63.164C172.509 63.304 172.733 63.5047 172.901 63.766C173.069 64.0273 173.153 64.368 173.153 64.788C173.153 65.2547 173.013 65.6607 172.733 66.006C172.462 66.3513 172.075 66.622 171.571 66.818C171.067 67.0047 170.465 67.098 169.765 67.098ZM175.22 67.098C174.902 67.098 174.632 66.9907 174.408 66.776C174.184 66.552 174.072 66.272 174.072 65.936C174.072 65.5813 174.184 65.3013 174.408 65.096C174.632 64.8813 174.902 64.774 175.22 64.774C175.537 64.774 175.808 64.8813 176.032 65.096C176.256 65.3013 176.368 65.5813 176.368 65.936C176.368 66.272 176.256 66.552 176.032 66.776C175.808 66.9907 175.537 67.098 175.22 67.098Z" fill="#141414"/>
</svg>
