<svg width="226" height="97" viewBox="0 0 226 97" fill="none" xmlns="http://www.w3.org/2000/svg">
<path d="M129.5 38.5L118.5 27.5M96.5 18.3333C96.5 20.0186 96.8319 21.6874 97.4769 23.2444C98.1218 24.8015 99.0671 26.2162 100.259 27.4079C101.45 28.5996 102.865 29.5449 104.422 30.1898C105.979 30.8347 107.648 31.1667 109.333 31.1667C111.019 31.1667 112.687 30.8347 114.244 30.1898C115.801 29.5449 117.216 28.5996 118.408 27.4079C119.6 26.2162 120.545 24.8015 121.19 23.2444C121.835 21.6874 122.167 20.0186 122.167 18.3333C122.167 16.648 121.835 14.9792 121.19 13.4222C120.545 11.8652 119.6 10.4505 118.408 9.2588C117.216 8.06711 115.801 7.12181 114.244 6.47688C112.687 5.83194 111.019 5.5 109.333 5.5C107.648 5.5 105.979 5.83194 104.422 6.47688C102.865 7.12181 101.45 8.06711 100.259 9.2588C99.0671 10.4505 98.1218 11.8652 97.4769 13.4222C96.8319 14.9792 96.5 16.648 96.5 18.3333Z" stroke="#141414" stroke-width="0.818182" stroke-linecap="round" stroke-linejoin="round"/>
<path d="M64.2154 67V57.2H68.2474C69.1154 57.2 69.8574 57.34 70.4734 57.62C71.0987 57.9 71.5794 58.3013 71.9154 58.824C72.2514 59.3467 72.4194 59.9673 72.4194 60.686C72.4194 61.4047 72.2514 62.0253 71.9154 62.548C71.5794 63.0707 71.0987 63.472 70.4734 63.752C69.8574 64.032 69.1154 64.172 68.2474 64.172H65.2234L66.0354 63.318V67H64.2154ZM66.0354 63.514L65.2234 62.632H68.1634C68.9661 62.632 69.5681 62.464 69.9694 62.128C70.3801 61.7827 70.5854 61.302 70.5854 60.686C70.5854 60.0607 70.3801 59.58 69.9694 59.244C69.5681 58.908 68.9661 58.74 68.1634 58.74H65.2234L66.0354 57.844V63.514ZM74.2056 67V56.612H75.9556V67H74.2056ZM81.7665 67.098C80.9358 67.098 80.2078 66.9347 79.5825 66.608C78.9665 66.272 78.4858 65.8147 78.1405 65.236C77.8045 64.6573 77.6365 63.9993 77.6365 63.262C77.6365 62.5153 77.7998 61.8573 78.1265 61.288C78.4625 60.7093 78.9198 60.2567 79.4985 59.93C80.0865 59.6033 80.7538 59.44 81.5005 59.44C82.2285 59.44 82.8772 59.5987 83.4465 59.916C84.0158 60.2333 84.4638 60.6813 84.7905 61.26C85.1172 61.8387 85.2805 62.52 85.2805 63.304C85.2805 63.3787 85.2758 63.4627 85.2665 63.556C85.2665 63.6493 85.2618 63.738 85.2525 63.822H79.0225V62.66H84.3285L83.6425 63.024C83.6518 62.5947 83.5632 62.2167 83.3765 61.89C83.1898 61.5633 82.9332 61.3067 82.6065 61.12C82.2892 60.9333 81.9205 60.84 81.5005 60.84C81.0712 60.84 80.6932 60.9333 80.3665 61.12C80.0492 61.3067 79.7972 61.568 79.6105 61.904C79.4332 62.2307 79.3445 62.618 79.3445 63.066V63.346C79.3445 63.794 79.4472 64.1907 79.6525 64.536C79.8578 64.8813 80.1472 65.1473 80.5205 65.334C80.8938 65.5207 81.3232 65.614 81.8085 65.614C82.2285 65.614 82.6065 65.5487 82.9425 65.418C83.2785 65.2873 83.5772 65.082 83.8385 64.802L84.7765 65.88C84.4405 66.272 84.0158 66.5753 83.5025 66.79C82.9985 66.9953 82.4198 67.098 81.7665 67.098ZM91.3624 67V65.488L91.2644 65.166V62.52C91.2644 62.0067 91.1104 61.61 90.8024 61.33C90.4944 61.0407 90.0277 60.896 89.4024 60.896C88.9824 60.896 88.5671 60.9613 88.1564 61.092C87.7551 61.2227 87.4144 61.4047 87.1344 61.638L86.4484 60.364C86.8497 60.056 87.3257 59.8273 87.8764 59.678C88.4364 59.5193 89.0151 59.44 89.6124 59.44C90.6951 59.44 91.5304 59.7013 92.1184 60.224C92.7157 60.7373 93.0144 61.5353 93.0144 62.618V67H91.3624ZM89.0104 67.098C88.4504 67.098 87.9604 67.0047 87.5404 66.818C87.1204 66.622 86.7937 66.356 86.5604 66.02C86.3364 65.6747 86.2244 65.2873 86.2244 64.858C86.2244 64.438 86.3224 64.06 86.5184 63.724C86.7237 63.388 87.0551 63.122 87.5124 62.926C87.9697 62.73 88.5764 62.632 89.3324 62.632H91.5024V63.794H89.4584C88.8611 63.794 88.4597 63.892 88.2544 64.088C88.0491 64.2747 87.9464 64.508 87.9464 64.788C87.9464 65.1053 88.0724 65.3573 88.3244 65.544C88.5764 65.7307 88.9264 65.824 89.3744 65.824C89.8037 65.824 90.1864 65.726 90.5224 65.53C90.8677 65.334 91.1151 65.0447 91.2644 64.662L91.5584 65.712C91.3904 66.1507 91.0871 66.4913 90.6484 66.734C90.2191 66.9767 89.6731 67.098 89.0104 67.098ZM97.5703 67.098C96.945 67.098 96.343 67.0187 95.7643 66.86C95.195 66.692 94.7423 66.4913 94.4063 66.258L95.0783 64.928C95.4143 65.1427 95.8156 65.32 96.2823 65.46C96.749 65.6 97.2156 65.67 97.6823 65.67C98.233 65.67 98.6296 65.5953 98.8723 65.446C99.1243 65.2967 99.2503 65.096 99.2503 64.844C99.2503 64.6387 99.1663 64.4847 98.9983 64.382C98.8303 64.27 98.611 64.186 98.3403 64.13C98.0696 64.074 97.7663 64.0227 97.4303 63.976C97.1036 63.9293 96.7723 63.8687 96.4363 63.794C96.1096 63.71 95.811 63.5933 95.5403 63.444C95.2696 63.2853 95.0503 63.0753 94.8823 62.814C94.7143 62.5527 94.6303 62.2073 94.6303 61.778C94.6303 61.302 94.7656 60.8913 95.0363 60.546C95.307 60.1913 95.685 59.9207 96.1703 59.734C96.665 59.538 97.2483 59.44 97.9203 59.44C98.4243 59.44 98.933 59.496 99.4463 59.608C99.9596 59.72 100.384 59.8787 100.72 60.084L100.048 61.414C99.6936 61.1993 99.3343 61.0547 98.9703 60.98C98.6156 60.896 98.261 60.854 97.9063 60.854C97.3743 60.854 96.9776 60.9333 96.7163 61.092C96.4643 61.2507 96.3383 61.4513 96.3383 61.694C96.3383 61.918 96.4223 62.086 96.5903 62.198C96.7583 62.31 96.9776 62.3987 97.2483 62.464C97.519 62.5293 97.8176 62.5853 98.1443 62.632C98.4803 62.6693 98.8116 62.73 99.1383 62.814C99.465 62.898 99.7636 63.0147 100.034 63.164C100.314 63.304 100.538 63.5047 100.706 63.766C100.874 64.0273 100.958 64.368 100.958 64.788C100.958 65.2547 100.818 65.6607 100.538 66.006C100.268 66.3513 99.8803 66.622 99.3763 66.818C98.8723 67.0047 98.2703 67.098 97.5703 67.098ZM105.979 67.098C105.149 67.098 104.421 66.9347 103.795 66.608C103.179 66.272 102.699 65.8147 102.353 65.236C102.017 64.6573 101.849 63.9993 101.849 63.262C101.849 62.5153 102.013 61.8573 102.339 61.288C102.675 60.7093 103.133 60.2567 103.711 59.93C104.299 59.6033 104.967 59.44 105.713 59.44C106.441 59.44 107.09 59.5987 107.659 59.916C108.229 60.2333 108.677 60.6813 109.003 61.26C109.33 61.8387 109.493 62.52 109.493 63.304C109.493 63.3787 109.489 63.4627 109.479 63.556C109.479 63.6493 109.475 63.738 109.465 63.822H103.235V62.66H108.541L107.855 63.024C107.865 62.5947 107.776 62.2167 107.589 61.89C107.403 61.5633 107.146 61.3067 106.819 61.12C106.502 60.9333 106.133 60.84 105.713 60.84C105.284 60.84 104.906 60.9333 104.579 61.12C104.262 61.3067 104.01 61.568 103.823 61.904C103.646 62.2307 103.557 62.618 103.557 63.066V63.346C103.557 63.794 103.66 64.1907 103.865 64.536C104.071 64.8813 104.36 65.1473 104.733 65.334C105.107 65.5207 105.536 65.614 106.021 65.614C106.441 65.614 106.819 65.5487 107.155 65.418C107.491 65.2873 107.79 65.082 108.051 64.802L108.989 65.88C108.653 66.272 108.229 66.5753 107.715 66.79C107.211 66.9953 106.633 67.098 105.979 67.098ZM118.25 67.14C117.484 67.14 116.752 67.0327 116.052 66.818C115.352 66.594 114.796 66.3093 114.386 65.964L115.016 64.55C115.408 64.858 115.893 65.1147 116.472 65.32C117.05 65.5253 117.643 65.628 118.25 65.628C118.763 65.628 119.178 65.572 119.496 65.46C119.813 65.348 120.046 65.1987 120.196 65.012C120.345 64.816 120.42 64.5967 120.42 64.354C120.42 64.0553 120.312 63.8173 120.098 63.64C119.883 63.4533 119.603 63.3087 119.258 63.206C118.922 63.094 118.544 62.9913 118.124 62.898C117.713 62.8047 117.298 62.6973 116.878 62.576C116.467 62.4453 116.089 62.282 115.744 62.086C115.408 61.8807 115.132 61.61 114.918 61.274C114.703 60.938 114.596 60.5087 114.596 59.986C114.596 59.454 114.736 58.9687 115.016 58.53C115.305 58.082 115.739 57.7273 116.318 57.466C116.906 57.1953 117.648 57.06 118.544 57.06C119.132 57.06 119.715 57.1347 120.294 57.284C120.872 57.4333 121.376 57.648 121.806 57.928L121.232 59.342C120.793 59.0807 120.34 58.8893 119.874 58.768C119.407 58.6373 118.959 58.572 118.53 58.572C118.026 58.572 117.615 58.6327 117.298 58.754C116.99 58.8753 116.761 59.034 116.612 59.23C116.472 59.426 116.402 59.65 116.402 59.902C116.402 60.2007 116.504 60.4433 116.71 60.63C116.924 60.8073 117.2 60.9473 117.536 61.05C117.881 61.1527 118.264 61.2553 118.684 61.358C119.104 61.4513 119.519 61.5587 119.93 61.68C120.35 61.8013 120.728 61.96 121.064 62.156C121.409 62.352 121.684 62.618 121.89 62.954C122.104 63.29 122.212 63.7147 122.212 64.228C122.212 64.7507 122.067 65.236 121.778 65.684C121.498 66.1227 121.064 66.4773 120.476 66.748C119.888 67.0093 119.146 67.14 118.25 67.14ZM127.362 67.098C126.532 67.098 125.804 66.9347 125.178 66.608C124.562 66.272 124.082 65.8147 123.736 65.236C123.4 64.6573 123.232 63.9993 123.232 63.262C123.232 62.5153 123.396 61.8573 123.722 61.288C124.058 60.7093 124.516 60.2567 125.094 59.93C125.682 59.6033 126.35 59.44 127.096 59.44C127.824 59.44 128.473 59.5987 129.042 59.916C129.612 60.2333 130.06 60.6813 130.386 61.26C130.713 61.8387 130.876 62.52 130.876 63.304C130.876 63.3787 130.872 63.4627 130.862 63.556C130.862 63.6493 130.858 63.738 130.848 63.822H124.618V62.66H129.924L129.238 63.024C129.248 62.5947 129.159 62.2167 128.972 61.89C128.786 61.5633 128.529 61.3067 128.202 61.12C127.885 60.9333 127.516 60.84 127.096 60.84C126.667 60.84 126.289 60.9333 125.962 61.12C125.645 61.3067 125.393 61.568 125.206 61.904C125.029 62.2307 124.94 62.618 124.94 63.066V63.346C124.94 63.794 125.043 64.1907 125.248 64.536C125.454 64.8813 125.743 65.1473 126.116 65.334C126.49 65.5207 126.919 65.614 127.404 65.614C127.824 65.614 128.202 65.5487 128.538 65.418C128.874 65.2873 129.173 65.082 129.434 64.802L130.372 65.88C130.036 66.272 129.612 66.5753 129.098 66.79C128.594 66.9953 128.016 67.098 127.362 67.098ZM136.958 67V65.488L136.86 65.166V62.52C136.86 62.0067 136.706 61.61 136.398 61.33C136.09 61.0407 135.623 60.896 134.998 60.896C134.578 60.896 134.163 60.9613 133.752 61.092C133.351 61.2227 133.01 61.4047 132.73 61.638L132.044 60.364C132.445 60.056 132.921 59.8273 133.472 59.678C134.032 59.5193 134.611 59.44 135.208 59.44C136.291 59.44 137.126 59.7013 137.714 60.224C138.311 60.7373 138.61 61.5353 138.61 62.618V67H136.958ZM134.606 67.098C134.046 67.098 133.556 67.0047 133.136 66.818C132.716 66.622 132.389 66.356 132.156 66.02C131.932 65.6747 131.82 65.2873 131.82 64.858C131.82 64.438 131.918 64.06 132.114 63.724C132.319 63.388 132.651 63.122 133.108 62.926C133.565 62.73 134.172 62.632 134.928 62.632H137.098V63.794H135.054C134.457 63.794 134.055 63.892 133.85 64.088C133.645 64.2747 133.542 64.508 133.542 64.788C133.542 65.1053 133.668 65.3573 133.92 65.544C134.172 65.7307 134.522 65.824 134.97 65.824C135.399 65.824 135.782 65.726 136.118 65.53C136.463 65.334 136.711 65.0447 136.86 64.662L137.154 65.712C136.986 66.1507 136.683 66.4913 136.244 66.734C135.815 66.9767 135.269 67.098 134.606 67.098ZM140.856 67V59.524H142.522V61.582L142.326 60.98C142.55 60.476 142.9 60.0933 143.376 59.832C143.861 59.5707 144.463 59.44 145.182 59.44V61.106C145.107 61.0873 145.037 61.078 144.972 61.078C144.907 61.0687 144.841 61.064 144.776 61.064C144.113 61.064 143.586 61.26 143.194 61.652C142.802 62.0347 142.606 62.6087 142.606 63.374V67H140.856ZM150.028 67.098C149.244 67.098 148.544 66.9347 147.928 66.608C147.322 66.272 146.846 65.8147 146.5 65.236C146.155 64.6573 145.982 63.9993 145.982 63.262C145.982 62.5153 146.155 61.8573 146.5 61.288C146.846 60.7093 147.322 60.2567 147.928 59.93C148.544 59.6033 149.244 59.44 150.028 59.44C150.756 59.44 151.396 59.5893 151.946 59.888C152.506 60.1773 152.931 60.6067 153.22 61.176L151.876 61.96C151.652 61.6053 151.377 61.344 151.05 61.176C150.733 61.008 150.388 60.924 150.014 60.924C149.585 60.924 149.198 61.0173 148.852 61.204C148.507 61.3907 148.236 61.6613 148.04 62.016C147.844 62.3613 147.746 62.7767 147.746 63.262C147.746 63.7473 147.844 64.1673 148.04 64.522C148.236 64.8673 148.507 65.1333 148.852 65.32C149.198 65.5067 149.585 65.6 150.014 65.6C150.388 65.6 150.733 65.516 151.05 65.348C151.377 65.18 151.652 64.9187 151.876 64.564L153.22 65.348C152.931 65.908 152.506 66.342 151.946 66.65C151.396 66.9487 150.756 67.098 150.028 67.098ZM158.907 59.44C159.504 59.44 160.036 59.5567 160.503 59.79C160.979 60.0233 161.352 60.3827 161.623 60.868C161.893 61.344 162.029 61.96 162.029 62.716V67H160.279V62.94C160.279 62.2773 160.12 61.7827 159.803 61.456C159.495 61.1293 159.061 60.966 158.501 60.966C158.09 60.966 157.726 61.05 157.409 61.218C157.091 61.386 156.844 61.638 156.667 61.974C156.499 62.3007 156.415 62.716 156.415 63.22V67H154.665V56.612H156.415V61.54L156.037 60.924C156.298 60.448 156.676 60.084 157.171 59.832C157.675 59.5707 158.253 59.44 158.907 59.44Z" fill="#141414"/>
</svg>
