<svg width="24" height="25" viewBox="0 0 24 25" fill="none" xmlns="http://www.w3.org/2000/svg">
<g id="tabler-icon-eye-off">
<path id="Vector" d="M10.5846 11.087C10.2096 11.4622 9.99893 11.9709 9.99902 12.5014C9.99912 13.0318 10.2099 13.5405 10.5851 13.9155C10.9602 14.2906 11.469 14.5012 11.9994 14.5011C12.5299 14.501 13.0386 14.2902 13.4136 13.915M16.681 17.173C15.2782 18.0507 13.6547 18.5109 12 18.5C8.4 18.5 5.4 16.5 3 12.5C4.272 10.38 5.712 8.82203 7.32 7.82603M10.18 6.68003C10.779 6.55876 11.3888 6.49845 12 6.50003C15.6 6.50003 18.6 8.50003 21 12.5C20.334 13.61 19.621 14.567 18.862 15.37M3 3.5L21 21.5" stroke="#7A7A7A" stroke-width="1.5" stroke-linecap="round" stroke-linejoin="round"/>
</g>
</svg>
