<svg width="24" height="25" viewBox="0 0 24 25" fill="none" xmlns="http://www.w3.org/2000/svg">
<g id="tabler-icon-send">
<path id="Vector" d="M10 14.5L21 3.5M10 14.5L13.4996 21.5C13.5435 21.5957 13.6139 21.6769 13.7025 21.7338C13.7912 21.7906 13.8943 21.8209 13.9996 21.8209C14.1049 21.8209 14.208 21.7906 14.2966 21.7338C14.3853 21.6769 14.4557 21.5957 14.4996 21.5L21 3.5M10 14.5L2.99958 11C2.90384 10.9561 2.82271 10.8857 2.76583 10.7971C2.70895 10.7084 2.67871 10.6053 2.67871 10.5C2.67871 10.3947 2.70895 10.2916 2.76583 10.2029C2.82271 10.1143 2.90384 10.0439 2.99958 10L21 3.5" stroke="white" stroke-width="1.5" stroke-linecap="round" stroke-linejoin="round"/>
</g>
</svg>
