<svg width="45" height="45" viewBox="0 0 45 45" fill="none" xmlns="http://www.w3.org/2000/svg">
<g id="tabler-icon-sticker-2">
<path id="Vector" d="M37.1663 24.3334V11.5C37.1663 10.5276 36.78 9.59495 36.0924 8.90732C35.4048 8.21968 34.4721 7.83337 33.4997 7.83337H11.4997C10.5272 7.83337 9.59458 8.21968 8.90695 8.90732C8.21932 9.59495 7.83301 10.5276 7.83301 11.5V33.5C7.83301 34.4725 8.21932 35.4051 8.90695 36.0928C9.59458 36.7804 10.5272 37.1667 11.4997 37.1667H24.333M37.1663 24.3334H27.9997C27.0272 24.3334 26.0946 24.7197 25.407 25.4073C24.7193 26.095 24.333 27.0276 24.333 28V37.1667M37.1663 24.3334V24.6487C37.1661 25.6211 36.7797 26.5536 36.092 27.241L27.2407 36.0924C26.5532 36.7801 25.6207 37.1665 24.6483 37.1667H24.333" stroke="black" stroke-width="1.5" stroke-linecap="round" stroke-linejoin="round"/>
</g>
</svg>
