<svg width="44" height="44" viewBox="0 0 44 44" fill="none" xmlns="http://www.w3.org/2000/svg">
<g id="tabler-icon-list-search">
<path id="Vector" d="M33.9163 33.9167L38.4997 38.5M7.33301 11H36.6663M7.33301 22H14.6663M7.33301 33H14.6663M20.1663 27.5C20.1663 29.4449 20.939 31.3102 22.3142 32.6854C23.6895 34.0607 25.5548 34.8333 27.4997 34.8333C29.4446 34.8333 31.3099 34.0607 32.6851 32.6854C34.0604 31.3102 34.833 29.4449 34.833 27.5C34.833 25.5551 34.0604 23.6898 32.6851 22.3146C31.3099 20.9393 29.4446 20.1667 27.4997 20.1667C25.5548 20.1667 23.6895 20.9393 22.3142 22.3146C20.939 23.6898 20.1663 25.5551 20.1663 27.5Z" stroke="black" stroke-width="0.818182" stroke-linecap="round" stroke-linejoin="round"/>
</g>
</svg>
