<svg width="45" height="45" viewBox="0 0 45 45" fill="none" xmlns="http://www.w3.org/2000/svg">
<g id="tabler-icon-calendar-month">
<path id="Vector" d="M29.833 6V13.3333M15.1663 6V13.3333M7.83301 20.6667H37.1663M13.333 26.1667H13.3568M18.8509 26.1667H18.8601M24.3509 26.1667H24.3601M29.8599 26.1667H29.869M24.3599 31.6667H24.369M13.3509 31.6667H13.3601M18.8509 31.6667H18.8601M7.83301 13.3333C7.83301 12.3609 8.21932 11.4282 8.90695 10.7406C9.59458 10.053 10.5272 9.66667 11.4997 9.66667H33.4997C34.4721 9.66667 35.4048 10.053 36.0924 10.7406C36.78 11.4282 37.1663 12.3609 37.1663 13.3333V35.3333C37.1663 36.3058 36.78 37.2384 36.0924 37.9261C35.4048 38.6137 34.4721 39 33.4997 39H11.4997C10.5272 39 9.59458 38.6137 8.90695 37.9261C8.21932 37.2384 7.83301 36.3058 7.83301 35.3333V13.3333Z" stroke="#141414" stroke-width="0.818182" stroke-linecap="round" stroke-linejoin="round"/>
</g>
</svg>
