<svg viewBox="0 0 16 17" fill="none" xmlns="http://www.w3.org/2000/svg">
<g id="tabler-icon-star-filled">
<path id="Vector" d="M5.49518 5.39328L1.24184 6.00995L1.16651 6.02528C1.05247 6.05556 0.948507 6.11555 0.865239 6.19915C0.78197 6.28274 0.72238 6.38694 0.692552 6.5011C0.662724 6.61526 0.663729 6.73529 0.695462 6.84893C0.727196 6.96257 0.788522 7.06576 0.873177 7.14795L3.95451 10.1473L3.22784 14.3839L3.21918 14.4573C3.2122 14.5752 3.23669 14.6929 3.29014 14.7983C3.3436 14.9037 3.4241 14.9929 3.5234 15.057C3.6227 15.121 3.73724 15.1575 3.85528 15.1627C3.97332 15.1679 4.09062 15.1416 4.19518 15.0866L7.99918 13.0866L11.7945 15.0866L11.8612 15.1173C11.9712 15.1606 12.0908 15.1739 12.2077 15.1558C12.3246 15.1377 12.4345 15.0888 12.5262 15.0141C12.618 14.9395 12.6882 14.8418 12.7297 14.731C12.7713 14.6203 12.7826 14.5005 12.7625 14.3839L12.0352 10.1473L15.1178 7.14728L15.1698 7.09062C15.2441 6.99913 15.2928 6.88958 15.311 6.77315C15.3292 6.65671 15.3161 6.53753 15.2732 6.42777C15.2303 6.318 15.1591 6.22157 15.0668 6.14829C14.9745 6.07501 14.8645 6.02751 14.7478 6.01062L10.4945 5.39328L8.59318 1.53995C8.53816 1.4283 8.45299 1.33429 8.3473 1.26855C8.24162 1.20281 8.11964 1.16797 7.99518 1.16797C7.87071 1.16797 7.74874 1.20281 7.64305 1.26855C7.53737 1.33429 7.45219 1.4283 7.39718 1.53995L5.49518 5.39328Z" fill="#141414"/>
</g>
</svg>
