<svg width="20" height="21" viewBox="0 0 20 21" fill="none" xmlns="http://www.w3.org/2000/svg">
<g id="tabler-icon-heart">
<path id="Vector" d="M16.2501 10.9768L10.0001 17.1668L3.75009 10.9768C3.33784 10.5757 3.01312 10.0935 2.79638 9.56068C2.57963 9.02786 2.47556 8.45594 2.4907 7.88093C2.50585 7.30591 2.63989 6.74026 2.88439 6.21959C3.12888 5.69893 3.47853 5.23453 3.91133 4.85563C4.34412 4.47674 4.85068 4.19155 5.3991 4.01805C5.94752 3.84454 6.52593 3.78647 7.09789 3.84748C7.66986 3.9085 8.223 4.08728 8.72248 4.37257C9.22196 4.65786 9.65696 5.04348 10.0001 5.50515C10.3447 5.04683 10.7802 4.66458 11.2793 4.38232C11.7785 4.10005 12.3305 3.92386 12.9009 3.86475C13.4712 3.80564 14.0477 3.8649 14.5941 4.03881C15.1405 4.21272 15.6451 4.49754 16.0764 4.87545C16.5077 5.25336 16.8563 5.71622 17.1004 6.23506C17.3446 6.7539 17.479 7.31755 17.4953 7.89074C17.5116 8.46393 17.4095 9.03431 17.1952 9.56619C16.9809 10.0981 16.6592 10.58 16.2501 10.9818" fill="#FF7029"/>
</g>
</svg>
