<svg viewBox="0 0 45 45" fill="none" xmlns="http://www.w3.org/2000/svg">
<g id="tabler-icon-heart">
<path id="Vector" d="M36.2504 23.5487L22.5004 37.1667L8.75039 23.5487C7.84345 22.6662 7.12907 21.6054 6.65223 20.4332C6.17539 19.2611 5.94642 18.0028 5.97974 16.7378C6.01306 15.4728 6.30795 14.2283 6.84584 13.0829C7.38373 11.9374 8.15297 10.9157 9.10511 10.0821C10.0573 9.24857 11.1717 8.62118 12.3782 8.23946C13.5847 7.85775 14.8572 7.72998 16.1156 7.86422C17.3739 7.99845 18.5908 8.39177 19.6897 9.01941C20.7885 9.64705 21.7455 10.4954 22.5004 11.5111C23.2585 10.5028 24.2166 9.66183 25.3147 9.04086C26.4128 8.41988 27.6273 8.03224 28.8821 7.9022C30.1369 7.77216 31.405 7.90253 32.6071 8.28513C33.8092 8.66774 34.9194 9.29435 35.8682 10.1257C36.817 10.9571 37.584 11.9754 38.1212 13.1169C38.6583 14.2583 38.9541 15.4984 38.99 16.7594C39.0258 18.0204 38.801 19.2752 38.3296 20.4454C37.8582 21.6155 37.1504 22.6758 36.2504 23.5597" stroke="currentColor" stroke-width="1.5" stroke-linecap="round" stroke-linejoin="round"/>
</g>
</svg>
