<svg width="24" height="25" viewBox="0 0 24 25" fill="none" xmlns="http://www.w3.org/2000/svg">
<g id="tabler-icon-camera-filled">
<path id="Vector" d="M15 3.5C15.5046 3.49984 15.9906 3.69041 16.3605 4.0335C16.7305 4.37659 16.9572 4.84684 16.995 5.35L17 5.5C17 5.74493 17.09 5.98134 17.2527 6.16437C17.4155 6.34741 17.6397 6.46434 17.883 6.493L18 6.5H19C19.7652 6.49996 20.5015 6.79233 21.0583 7.31728C21.615 7.84224 21.9501 8.56011 21.995 9.324L22 9.5V18.5C22 19.2652 21.7077 20.0015 21.1827 20.5583C20.6578 21.115 19.9399 21.4501 19.176 21.495L19 21.5H5C4.23479 21.5 3.49849 21.2077 2.94174 20.6827C2.38499 20.1578 2.04989 19.4399 2.005 18.676L2 18.5V9.5C1.99996 8.73479 2.29233 7.99849 2.81728 7.44174C3.34224 6.88499 4.06011 6.54989 4.824 6.505L5 6.5H6C6.26522 6.5 6.51957 6.39464 6.70711 6.20711C6.89464 6.01957 7 5.76522 7 5.5C6.99984 4.99542 7.19041 4.50943 7.5335 4.13945C7.87659 3.76947 8.34685 3.54284 8.85 3.505L9 3.5H15ZM12 10.5C11.2566 10.4999 10.5396 10.7759 9.98813 11.2744C9.43662 11.7729 9.08984 12.4584 9.015 13.198L9.004 13.35L9 13.5L9.004 13.65C9.03335 14.2362 9.23402 14.801 9.58117 15.2743C9.92832 15.7476 10.4067 16.1087 10.957 16.3128C11.5074 16.5169 12.1055 16.5551 12.6773 16.4226C13.2491 16.2901 13.7695 15.9928 14.174 15.5675C14.5786 15.1422 14.8494 14.6076 14.9531 14.0298C15.0568 13.4521 14.9887 12.8566 14.7572 12.3172C14.5258 11.7778 14.1412 11.3181 13.6511 10.9951C13.1611 10.6721 12.587 10.5 12 10.5Z" fill="#141414"/>
</g>
</svg>
