<svg xmlns="http://www.w3.org/2000/svg" width="23" height="22" viewBox="0 0 23 22" fill="none">
  <path d="M1 8.65356L10.0033 1.45092C10.7548 0.849694 11.8227 0.849694 12.5742 1.45092L21.5775 8.65356" stroke="currentColor" stroke-width="1.5" stroke-linecap="round" stroke-linejoin="round"/>
  <path d="M8.69342 2.53112L4.57792 5.87497C3.83069 6.48209 3.45708 6.78565 3.25734 7.20528C3.05762 7.6249 3.05762 8.10629 3.05762 9.06909V12.769C3.05762 16.6491 3.05762 18.5893 4.26302 19.7946C5.46843 21 7.40849 21 11.2886 21C15.1687 21 17.1089 21 18.3142 19.7946C19.5196 18.5893 19.5196 16.6491 19.5196 12.769V9.06909C19.5196 8.10629 19.5196 7.6249 19.3199 7.20528C19.1201 6.78565 18.7465 6.48209 17.9994 5.87497L13.8839 2.53112C12.6408 1.52112 12.0192 1.01611 11.2886 1.01611C10.558 1.01611 9.93648 1.52112 8.69342 2.53112Z" stroke="currentColor" stroke-width="1.5"/>
  <path d="M8.97363 15.084H13.6036" stroke="currentColor" stroke-width="1.5" stroke-linecap="round"/>
</svg>