<svg xmlns="http://www.w3.org/2000/svg" width="20" height="19" viewBox="0 0 20 19" fill="none">
<path fill-rule="evenodd" clip-rule="evenodd" d="M8.75 1.5C4.74594 1.5 1.5 4.74594 1.5 8.75C1.5 10.5132 2.12849 12.1277 3.17447 13.3845C3.33798 13.581 3.39017 13.8472 3.31294 14.0909L2.5745 16.4207L5.57803 15.4745C5.74239 15.4227 5.91957 15.4291 6.07976 15.4926C6.90514 15.8198 7.8056 16 8.75 16H10.75C14.7541 16 18 12.7541 18 8.75C18 4.74594 14.7541 1.5 10.75 1.5H8.75ZM0 8.75C0 3.91751 3.91751 0 8.75 0H10.75C15.5825 0 19.5 3.91751 19.5 8.75C19.5 13.5825 15.5825 17.5 10.75 17.5H8.75C7.70897 17.5 6.70896 17.3179 5.78108 16.9832L2.56646 17.9959C1.60115 18.3 0.6935 17.3908 0.99928 16.426L1.4881 16.581L0.99928 16.426L1.76265 14.0176C0.65646 12.5523 0 10.727 0 8.75Z" fill="currentColor"/>
<path d="M6.25 9.75C6.80228 9.75 7.25 9.30228 7.25 8.75C7.25 8.19772 6.80228 7.75 6.25 7.75C5.69772 7.75 5.25 8.19772 5.25 8.75C5.25 9.30228 5.69772 9.75 6.25 9.75Z" fill="currentColor"/>
<path d="M9.75 9.75C10.3023 9.75 10.75 9.30228 10.75 8.75C10.75 8.19772 10.3023 7.75 9.75 7.75C9.19772 7.75 8.75 8.19772 8.75 8.75C8.75 9.30228 9.19772 9.75 9.75 9.75Z" fill="currentColor"/>
<path d="M13.25 9.75C13.8023 9.75 14.25 9.30228 14.25 8.75C14.25 8.19772 13.8023 7.75 13.25 7.75C12.6977 7.75 12.25 8.19772 12.25 8.75C12.25 9.30228 12.6977 9.75 13.25 9.75Z" fill="currentColor"/>
</svg>